<?xml version="1.0" standalone="no"?>
<!DOCTYPE svg PUBLIC "-//W3C//DTD SVG 20010904//EN"
 "http://www.w3.org/TR/2001/REC-SVG-20010904/DTD/svg10.dtd">
<svg version="1.0" xmlns="http://www.w3.org/2000/svg"
 width="512.000000pt" height="512.000000pt" viewBox="0 0 512.000000 512.000000"
 preserveAspectRatio="xMidYMid meet">

<g transform="translate(0.000000,512.000000) scale(0.100000,-0.100000)"
fill="#000000" stroke="none">
<path d="M3042 4989 c-588 -68 -1107 -489 -1301 -1056 -63 -183 -75 -265 -75
-503 -1 -232 11 -317 69 -496 58 -178 184 -402 241 -429 62 -29 131 -9 157 48
25 52 21 87 -19 153 -90 148 -146 289 -181 454 -25 118 -25 382 0 500 114 540
519 942 1055 1047 107 21 345 23 452 4 536 -95 962 -510 1077 -1051 25 -119
25 -372 -1 -490 -28 -131 -81 -274 -152 -407 -35 -67 -64 -134 -64 -148 0 -77
66 -132 143 -120 53 9 78 37 146 159 97 176 166 382 192 573 17 128 6 413 -20
531 -112 506 -454 919 -925 1118 -242 103 -530 144 -794 113z"/>
<path d="M121 3800 c-18 -4 -48 -22 -65 -39 l-31 -31 -3 -1250 c-3 -1382 -7
-1289 61 -1331 31 -19 51 -19 620 -17 l589 3 34 37 c28 32 34 45 34 84 0 60
-13 82 -63 105 -39 17 -73 19 -534 19 l-493 0 0 1085 0 1085 465 0 c514 0 517
0 555 62 48 80 9 171 -80 189 -56 10 -1043 10 -1089 -1z"/>
<path d="M3165 3396 c-17 -7 -35 -19 -41 -27 -20 -24 -1736 -3021 -1756 -3067
-22 -48 -18 -108 9 -150 34 -55 -60 -52 1845 -52 1735 0 1762 0 1803 20 80 39
100 134 46 219 -16 25 -415 712 -886 1526 -472 814 -865 1488 -874 1499 -39
44 -92 56 -146 32z m833 -1704 c419 -722 762 -1315 762 -1317 0 -3 -691 -5
-1536 -5 -859 0 -1534 4 -1532 9 16 41 1534 2639 1538 2633 4 -4 350 -598 768
-1320z"/>
</g>
</svg>
